<?xml version="1.0" encoding="us-ascii" standalone="no"?><svg xmlns="http://www.w3.org/2000/svg" xmlns:xlink="http://www.w3.org/1999/xlink" contentStyleType="text/css" height="733px" preserveAspectRatio="none" style="width:1229px;height:733px;background:#FFFFFF;" version="1.1" viewBox="0 0 1229 733" width="1229px" zoomAndPan="magnify"><defs/><g><!--cluster main--><g id="cluster_main"><path d="M492,6 L533,6 A3.75,3.75 0 0 1 535.5,8.5 L542.5,28.2969 L721,28.2969 A2.5,2.5 0 0 1 723.5,30.7969 L723.5,118.5 A2.5,2.5 0 0 1 721,121 L492,121 A2.5,2.5 0 0 1 489.5,118.5 L489.5,8.5 A2.5,2.5 0 0 1 492,6 " fill="none" style="stroke:#000000;stroke-width:1.5;"/><line style="stroke:#000000;stroke-width:1.5;" x1="489.5" x2="542.5" y1="28.2969" y2="28.2969"/><text fill="#000000" font-family="sans-serif" font-size="14" font-weight="bold" lengthAdjust="spacing" textLength="40" x="493.5" y="20.9951">main</text></g><!--class py--><g id="elem_py"><rect codeLine="1" fill="#F1F1F1" height="64.4453" id="py" rx="2.5" ry="2.5" style="stroke:#181818;stroke-width:0.5;" width="202" x="505.5" y="41"/><ellipse cx="593.25" cy="57" fill="#ADD1B2" rx="11" ry="11" style="stroke:#181818;stroke-width:1.0;"/><path d="M595.5938,52.6719 C594.6563,52.2344 594.0625,52.0938 593.1875,52.0938 C590.5625,52.0938 588.5625,54.1719 588.5625,56.8906 L588.5625,58.0156 C588.5625,60.5938 590.6719,62.4844 593.5625,62.4844 C594.7813,62.4844 595.9375,62.1875 596.6875,61.6406 C597.2656,61.2344 597.5938,60.7813 597.5938,60.3906 C597.5938,59.9375 597.2031,59.5469 596.7344,59.5469 C596.5156,59.5469 596.3125,59.625 596.125,59.8125 C595.6719,60.2969 595.6719,60.2969 595.4844,60.3906 C595.0625,60.6563 594.375,60.7813 593.6094,60.7813 C591.5625,60.7813 590.2656,59.6875 590.2656,57.9844 L590.2656,56.8906 C590.2656,55.1094 591.5156,53.7969 593.25,53.7969 C593.8281,53.7969 594.4375,53.9531 594.9063,54.2031 C595.3906,54.4844 595.5625,54.7031 595.6563,55.1094 C595.7188,55.5156 595.75,55.6406 595.8906,55.7656 C596.0313,55.9063 596.2656,56.0156 596.4844,56.0156 C596.75,56.0156 597.0156,55.875 597.1875,55.6563 C597.2969,55.5 597.3281,55.3125 597.3281,54.8906 L597.3281,53.4688 C597.3281,53.0313 597.3125,52.9063 597.2188,52.75 C597.0625,52.4844 596.7813,52.3438 596.4844,52.3438 C596.1875,52.3438 595.9844,52.4375 595.7656,52.75 L595.5938,52.6719 Z " fill="#000000"/><text fill="#000000" font-family="sans-serif" font-size="14" lengthAdjust="spacing" textLength="18" x="613.75" y="61.8467">py</text><line style="stroke:#181818;stroke-width:0.5;" x1="506.5" x2="706.5" y1="73" y2="73"/><line style="stroke:#181818;stroke-width:1.0;stroke-dasharray:1.0,2.0;" x1="506.5" x2="509.5" y1="89.1484" y2="89.1484"/><text fill="#000000" font-family="sans-serif" font-size="14" lengthAdjust="spacing" textLength="194" x="509.5" y="93.4951">Entry point for Python app</text><line style="stroke:#181818;stroke-width:1.0;stroke-dasharray:1.0,2.0;" x1="703.5" x2="706.5" y1="89.1484" y2="89.1484"/></g><!--class ArduinoAppController--><g id="elem_ArduinoAppController"><rect codeLine="5" fill="#F1F1F1" height="194.6719" id="ArduinoAppController" rx="2.5" ry="2.5" style="stroke:#181818;stroke-width:0.5;" width="318" x="447.5" y="184"/><ellipse cx="523.25" cy="200" fill="#ADD1B2" rx="11" ry="11" style="stroke:#181818;stroke-width:1.0;"/><path d="M525.5938,195.6719 C524.6563,195.2344 524.0625,195.0938 523.1875,195.0938 C520.5625,195.0938 518.5625,197.1719 518.5625,199.8906 L518.5625,201.0156 C518.5625,203.5938 520.6719,205.4844 523.5625,205.4844 C524.7813,205.4844 525.9375,205.1875 526.6875,204.6406 C527.2656,204.2344 527.5938,203.7813 527.5938,203.3906 C527.5938,202.9375 527.2031,202.5469 526.7344,202.5469 C526.5156,202.5469 526.3125,202.625 526.125,202.8125 C525.6719,203.2969 525.6719,203.2969 525.4844,203.3906 C525.0625,203.6563 524.375,203.7813 523.6094,203.7813 C521.5625,203.7813 520.2656,202.6875 520.2656,200.9844 L520.2656,199.8906 C520.2656,198.1094 521.5156,196.7969 523.25,196.7969 C523.8281,196.7969 524.4375,196.9531 524.9063,197.2031 C525.3906,197.4844 525.5625,197.7031 525.6563,198.1094 C525.7188,198.5156 525.75,198.6406 525.8906,198.7656 C526.0313,198.9063 526.2656,199.0156 526.4844,199.0156 C526.75,199.0156 527.0156,198.875 527.1875,198.6563 C527.2969,198.5 527.3281,198.3125 527.3281,197.8906 L527.3281,196.4688 C527.3281,196.0313 527.3125,195.9063 527.2188,195.75 C527.0625,195.4844 526.7813,195.3438 526.4844,195.3438 C526.1875,195.3438 525.9844,195.4375 525.7656,195.75 L525.5938,195.6719 Z " fill="#000000"/><text fill="#000000" font-family="sans-serif" font-size="14" lengthAdjust="spacing" textLength="158" x="543.75" y="204.8467">ArduinoAppController</text><line style="stroke:#181818;stroke-width:0.5;" x1="448.5" x2="764.5" y1="216" y2="216"/><rect fill="none" height="6" style="stroke:#C82930;stroke-width:1.0;" width="6" x="455.5" y="226.6484"/><text fill="#000000" font-family="sans-serif" font-size="14" lengthAdjust="spacing" textLength="118" x="467.5" y="232.9951">root : tkinter.Tk</text><rect fill="none" height="6" style="stroke:#C82930;stroke-width:1.0;" width="6" x="455.5" y="242.9453"/><text fill="#000000" font-family="sans-serif" font-size="14" lengthAdjust="spacing" textLength="264" x="467.5" y="249.292">callback_manager : CallbackManager</text><rect fill="none" height="6" style="stroke:#C82930;stroke-width:1.0;" width="6" x="455.5" y="259.2422"/><text fill="#000000" font-family="sans-serif" font-size="14" lengthAdjust="spacing" textLength="210" x="467.5" y="265.5889">view_manager : ViewManager</text><rect fill="none" height="6" style="stroke:#C82930;stroke-width:1.0;" width="6" x="455.5" y="275.5391"/><text fill="#000000" font-family="sans-serif" font-size="14" lengthAdjust="spacing" textLength="292" x="467.5" y="281.8857">communication : ArduinoCommunication</text><line style="stroke:#181818;stroke-width:0.5;" x1="448.5" x2="764.5" y1="289.1875" y2="289.1875"/><ellipse cx="458.5" cy="302.8359" fill="#84BE84" rx="3" ry="3" style="stroke:#038048;stroke-width:1.0;"/><text fill="#000000" font-family="sans-serif" font-size="14" lengthAdjust="spacing" textLength="176" x="467.5" y="306.1826">__init__(root: tkinter.Tk)</text><ellipse cx="458.5" cy="319.1328" fill="#84BE84" rx="3" ry="3" style="stroke:#038048;stroke-width:1.0;"/><text fill="#000000" font-family="sans-serif" font-size="14" lengthAdjust="spacing" textLength="99" x="467.5" y="322.4795">toggle_start()</text><ellipse cx="458.5" cy="335.4297" fill="#84BE84" rx="3" ry="3" style="stroke:#038048;stroke-width:1.0;"/><text fill="#000000" font-family="sans-serif" font-size="14" lengthAdjust="spacing" textLength="83" x="467.5" y="338.7764">clear_text()</text><ellipse cx="458.5" cy="351.7266" fill="#84BE84" rx="3" ry="3" style="stroke:#038048;stroke-width:1.0;"/><text fill="#000000" font-family="sans-serif" font-size="14" lengthAdjust="spacing" textLength="74" x="467.5" y="355.0732">calibrate()</text><ellipse cx="458.5" cy="368.0234" fill="#84BE84" rx="3" ry="3" style="stroke:#038048;stroke-width:1.0;"/><text fill="#000000" font-family="sans-serif" font-size="14" lengthAdjust="spacing" textLength="127" x="467.5" y="371.3701">update_settings()</text></g><!--class CallbackManager--><g id="elem_CallbackManager"><rect codeLine="17" fill="#F1F1F1" height="64.2969" id="CallbackManager" rx="2.5" ry="2.5" style="stroke:#181818;stroke-width:0.5;" width="329" x="7" y="488.5"/><ellipse cx="106.25" cy="504.5" fill="#ADD1B2" rx="11" ry="11" style="stroke:#181818;stroke-width:1.0;"/><path d="M108.5938,500.1719 C107.6563,499.7344 107.0625,499.5938 106.1875,499.5938 C103.5625,499.5938 101.5625,501.6719 101.5625,504.3906 L101.5625,505.5156 C101.5625,508.0938 103.6719,509.9844 106.5625,509.9844 C107.7813,509.9844 108.9375,509.6875 109.6875,509.1406 C110.2656,508.7344 110.5938,508.2813 110.5938,507.8906 C110.5938,507.4375 110.2031,507.0469 109.7344,507.0469 C109.5156,507.0469 109.3125,507.125 109.125,507.3125 C108.6719,507.7969 108.6719,507.7969 108.4844,507.8906 C108.0625,508.1563 107.375,508.2813 106.6094,508.2813 C104.5625,508.2813 103.2656,507.1875 103.2656,505.4844 L103.2656,504.3906 C103.2656,502.6094 104.5156,501.2969 106.25,501.2969 C106.8281,501.2969 107.4375,501.4531 107.9063,501.7031 C108.3906,501.9844 108.5625,502.2031 108.6563,502.6094 C108.7188,503.0156 108.75,503.1406 108.8906,503.2656 C109.0313,503.4063 109.2656,503.5156 109.4844,503.5156 C109.75,503.5156 110.0156,503.375 110.1875,503.1563 C110.2969,503 110.3281,502.8125 110.3281,502.3906 L110.3281,500.9688 C110.3281,500.5313 110.3125,500.4063 110.2188,500.25 C110.0625,499.9844 109.7813,499.8438 109.4844,499.8438 C109.1875,499.8438 108.9844,499.9375 108.7656,500.25 L108.5938,500.1719 Z " fill="#000000"/><text fill="#000000" font-family="sans-serif" font-size="14" lengthAdjust="spacing" textLength="122" x="126.75" y="509.3467">CallbackManager</text><line style="stroke:#181818;stroke-width:0.5;" x1="8" x2="335" y1="520.5" y2="520.5"/><line style="stroke:#181818;stroke-width:0.5;" x1="8" x2="335" y1="528.5" y2="528.5"/><ellipse cx="18" cy="542.1484" fill="#84BE84" rx="3" ry="3" style="stroke:#038048;stroke-width:1.0;"/><text fill="#000000" font-family="sans-serif" font-size="14" lengthAdjust="spacing" textLength="303" x="27" y="545.4951">register(event: Events, callback: function)</text></g><!--class ViewManager--><g id="elem_ViewManager"><rect codeLine="21" fill="#F1F1F1" height="129.4844" id="ViewManager" rx="2.5" ry="2.5" style="stroke:#181818;stroke-width:0.5;" width="470" x="371.5" y="456"/><ellipse cx="554.75" cy="472" fill="#ADD1B2" rx="11" ry="11" style="stroke:#181818;stroke-width:1.0;"/><path d="M557.0938,467.6719 C556.1563,467.2344 555.5625,467.0938 554.6875,467.0938 C552.0625,467.0938 550.0625,469.1719 550.0625,471.8906 L550.0625,473.0156 C550.0625,475.5938 552.1719,477.4844 555.0625,477.4844 C556.2813,477.4844 557.4375,477.1875 558.1875,476.6406 C558.7656,476.2344 559.0938,475.7813 559.0938,475.3906 C559.0938,474.9375 558.7031,474.5469 558.2344,474.5469 C558.0156,474.5469 557.8125,474.625 557.625,474.8125 C557.1719,475.2969 557.1719,475.2969 556.9844,475.3906 C556.5625,475.6563 555.875,475.7813 555.1094,475.7813 C553.0625,475.7813 551.7656,474.6875 551.7656,472.9844 L551.7656,471.8906 C551.7656,470.1094 553.0156,468.7969 554.75,468.7969 C555.3281,468.7969 555.9375,468.9531 556.4063,469.2031 C556.8906,469.4844 557.0625,469.7031 557.1563,470.1094 C557.2188,470.5156 557.25,470.6406 557.3906,470.7656 C557.5313,470.9063 557.7656,471.0156 557.9844,471.0156 C558.25,471.0156 558.5156,470.875 558.6875,470.6563 C558.7969,470.5 558.8281,470.3125 558.8281,469.8906 L558.8281,468.4688 C558.8281,468.0313 558.8125,467.9063 558.7188,467.75 C558.5625,467.4844 558.2813,467.3438 557.9844,467.3438 C557.6875,467.3438 557.4844,467.4375 557.2656,467.75 L557.0938,467.6719 Z " fill="#000000"/><text fill="#000000" font-family="sans-serif" font-size="14" lengthAdjust="spacing" textLength="95" x="575.25" y="476.8467">ViewManager</text><line style="stroke:#181818;stroke-width:0.5;" x1="372.5" x2="840.5" y1="488" y2="488"/><rect fill="none" height="6" style="stroke:#C82930;stroke-width:1.0;" width="6" x="379.5" y="498.6484"/><text fill="#000000" font-family="sans-serif" font-size="14" lengthAdjust="spacing" textLength="118" x="391.5" y="504.9951">root : tkinter.Tk</text><rect fill="none" height="6" style="stroke:#C82930;stroke-width:1.0;" width="6" x="379.5" y="514.9453"/><text fill="#000000" font-family="sans-serif" font-size="14" lengthAdjust="spacing" textLength="148" x="391.5" y="521.292">text_area : TextArea</text><rect fill="none" height="6" style="stroke:#C82930;stroke-width:1.0;" width="6" x="379.5" y="531.2422"/><text fill="#000000" font-family="sans-serif" font-size="14" lengthAdjust="spacing" textLength="172" x="391.5" y="537.5889">buttons : ButtonsFrame</text><rect fill="none" height="6" style="stroke:#C82930;stroke-width:1.0;" width="6" x="379.5" y="547.5391"/><text fill="#000000" font-family="sans-serif" font-size="14" lengthAdjust="spacing" textLength="133" x="391.5" y="553.8857">settings : Settings</text><line style="stroke:#181818;stroke-width:0.5;" x1="372.5" x2="840.5" y1="561.1875" y2="561.1875"/><ellipse cx="382.5" cy="574.8359" fill="#84BE84" rx="3" ry="3" style="stroke:#038048;stroke-width:1.0;"/><text fill="#000000" font-family="sans-serif" font-size="14" lengthAdjust="spacing" textLength="444" x="391.5" y="578.1826">__init__(root: tkinter.Tk, callback_manager: CallbackManager)</text></g><!--class TextArea--><g id="elem_TextArea"><rect codeLine="29" fill="#F1F1F1" height="64.4453" id="TextArea" rx="2.5" ry="2.5" style="stroke:#181818;stroke-width:0.5;" width="234" x="234.5" y="662"/><ellipse cx="314.25" cy="678" fill="#ADD1B2" rx="11" ry="11" style="stroke:#181818;stroke-width:1.0;"/><path d="M316.5938,673.6719 C315.6563,673.2344 315.0625,673.0938 314.1875,673.0938 C311.5625,673.0938 309.5625,675.1719 309.5625,677.8906 L309.5625,679.0156 C309.5625,681.5938 311.6719,683.4844 314.5625,683.4844 C315.7813,683.4844 316.9375,683.1875 317.6875,682.6406 C318.2656,682.2344 318.5938,681.7813 318.5938,681.3906 C318.5938,680.9375 318.2031,680.5469 317.7344,680.5469 C317.5156,680.5469 317.3125,680.625 317.125,680.8125 C316.6719,681.2969 316.6719,681.2969 316.4844,681.3906 C316.0625,681.6563 315.375,681.7813 314.6094,681.7813 C312.5625,681.7813 311.2656,680.6875 311.2656,678.9844 L311.2656,677.8906 C311.2656,676.1094 312.5156,674.7969 314.25,674.7969 C314.8281,674.7969 315.4375,674.9531 315.9063,675.2031 C316.3906,675.4844 316.5625,675.7031 316.6563,676.1094 C316.7188,676.5156 316.75,676.6406 316.8906,676.7656 C317.0313,676.9063 317.2656,677.0156 317.4844,677.0156 C317.75,677.0156 318.0156,676.875 318.1875,676.6563 C318.2969,676.5 318.3281,676.3125 318.3281,675.8906 L318.3281,674.4688 C318.3281,674.0313 318.3125,673.9063 318.2188,673.75 C318.0625,673.4844 317.7813,673.3438 317.4844,673.3438 C317.1875,673.3438 316.9844,673.4375 316.7656,673.75 L316.5938,673.6719 Z " fill="#000000"/><text fill="#000000" font-family="sans-serif" font-size="14" lengthAdjust="spacing" textLength="66" x="334.75" y="682.8467">TextArea</text><line style="stroke:#181818;stroke-width:0.5;" x1="235.5" x2="467.5" y1="694" y2="694"/><line style="stroke:#181818;stroke-width:1.0;stroke-dasharray:1.0,2.0;" x1="235.5" x2="238.5" y1="710.1484" y2="710.1484"/><text fill="#000000" font-family="sans-serif" font-size="14" lengthAdjust="spacing" textLength="226" x="238.5" y="714.4951">GUI component for text display</text><line style="stroke:#181818;stroke-width:1.0;stroke-dasharray:1.0,2.0;" x1="464.5" x2="467.5" y1="710.1484" y2="710.1484"/></g><!--class ButtonsFrame--><g id="elem_ButtonsFrame"><rect codeLine="33" fill="#F1F1F1" height="64.4453" id="ButtonsFrame" rx="2.5" ry="2.5" style="stroke:#181818;stroke-width:0.5;" width="206" x="503.5" y="662"/><ellipse cx="551.25" cy="678" fill="#ADD1B2" rx="11" ry="11" style="stroke:#181818;stroke-width:1.0;"/><path d="M553.5938,673.6719 C552.6563,673.2344 552.0625,673.0938 551.1875,673.0938 C548.5625,673.0938 546.5625,675.1719 546.5625,677.8906 L546.5625,679.0156 C546.5625,681.5938 548.6719,683.4844 551.5625,683.4844 C552.7813,683.4844 553.9375,683.1875 554.6875,682.6406 C555.2656,682.2344 555.5938,681.7813 555.5938,681.3906 C555.5938,680.9375 555.2031,680.5469 554.7344,680.5469 C554.5156,680.5469 554.3125,680.625 554.125,680.8125 C553.6719,681.2969 553.6719,681.2969 553.4844,681.3906 C553.0625,681.6563 552.375,681.7813 551.6094,681.7813 C549.5625,681.7813 548.2656,680.6875 548.2656,678.9844 L548.2656,677.8906 C548.2656,676.1094 549.5156,674.7969 551.25,674.7969 C551.8281,674.7969 552.4375,674.9531 552.9063,675.2031 C553.3906,675.4844 553.5625,675.7031 553.6563,676.1094 C553.7188,676.5156 553.75,676.6406 553.8906,676.7656 C554.0313,676.9063 554.2656,677.0156 554.4844,677.0156 C554.75,677.0156 555.0156,676.875 555.1875,676.6563 C555.2969,676.5 555.3281,676.3125 555.3281,675.8906 L555.3281,674.4688 C555.3281,674.0313 555.3125,673.9063 555.2188,673.75 C555.0625,673.4844 554.7813,673.3438 554.4844,673.3438 C554.1875,673.3438 553.9844,673.4375 553.7656,673.75 L553.5938,673.6719 Z " fill="#000000"/><text fill="#000000" font-family="sans-serif" font-size="14" lengthAdjust="spacing" textLength="102" x="571.75" y="682.8467">ButtonsFrame</text><line style="stroke:#181818;stroke-width:0.5;" x1="504.5" x2="708.5" y1="694" y2="694"/><line style="stroke:#181818;stroke-width:1.0;stroke-dasharray:1.0,2.0;" x1="504.5" x2="507.5" y1="710.1484" y2="710.1484"/><text fill="#000000" font-family="sans-serif" font-size="14" lengthAdjust="spacing" textLength="198" x="507.5" y="714.4951">GUI component for buttons</text><line style="stroke:#181818;stroke-width:1.0;stroke-dasharray:1.0,2.0;" x1="705.5" x2="708.5" y1="710.1484" y2="710.1484"/></g><!--class Settings--><g id="elem_Settings"><rect codeLine="37" fill="#F1F1F1" height="64.4453" id="Settings" rx="2.5" ry="2.5" style="stroke:#181818;stroke-width:0.5;" width="208" x="744.5" y="662"/><ellipse cx="813.75" cy="678" fill="#ADD1B2" rx="11" ry="11" style="stroke:#181818;stroke-width:1.0;"/><path d="M816.0938,673.6719 C815.1563,673.2344 814.5625,673.0938 813.6875,673.0938 C811.0625,673.0938 809.0625,675.1719 809.0625,677.8906 L809.0625,679.0156 C809.0625,681.5938 811.1719,683.4844 814.0625,683.4844 C815.2813,683.4844 816.4375,683.1875 817.1875,682.6406 C817.7656,682.2344 818.0938,681.7813 818.0938,681.3906 C818.0938,680.9375 817.7031,680.5469 817.2344,680.5469 C817.0156,680.5469 816.8125,680.625 816.625,680.8125 C816.1719,681.2969 816.1719,681.2969 815.9844,681.3906 C815.5625,681.6563 814.875,681.7813 814.1094,681.7813 C812.0625,681.7813 810.7656,680.6875 810.7656,678.9844 L810.7656,677.8906 C810.7656,676.1094 812.0156,674.7969 813.75,674.7969 C814.3281,674.7969 814.9375,674.9531 815.4063,675.2031 C815.8906,675.4844 816.0625,675.7031 816.1563,676.1094 C816.2188,676.5156 816.25,676.6406 816.3906,676.7656 C816.5313,676.9063 816.7656,677.0156 816.9844,677.0156 C817.25,677.0156 817.5156,676.875 817.6875,676.6563 C817.7969,676.5 817.8281,676.3125 817.8281,675.8906 L817.8281,674.4688 C817.8281,674.0313 817.8125,673.9063 817.7188,673.75 C817.5625,673.4844 817.2813,673.3438 816.9844,673.3438 C816.6875,673.3438 816.4844,673.4375 816.2656,673.75 L816.0938,673.6719 Z " fill="#000000"/><text fill="#000000" font-family="sans-serif" font-size="14" lengthAdjust="spacing" textLength="61" x="834.25" y="682.8467">Settings</text><line style="stroke:#181818;stroke-width:0.5;" x1="745.5" x2="951.5" y1="694" y2="694"/><line style="stroke:#181818;stroke-width:1.0;stroke-dasharray:1.0,2.0;" x1="745.5" x2="748.5" y1="710.1484" y2="710.1484"/><text fill="#000000" font-family="sans-serif" font-size="14" lengthAdjust="spacing" textLength="200" x="748.5" y="714.4951">GUI component for settings</text><line style="stroke:#181818;stroke-width:1.0;stroke-dasharray:1.0,2.0;" x1="948.5" x2="951.5" y1="710.1484" y2="710.1484"/></g><!--class ArduinoCommunication--><g id="elem_ArduinoCommunication"><rect codeLine="41" fill="#F1F1F1" height="80.5938" id="ArduinoCommunication" rx="2.5" ry="2.5" style="stroke:#181818;stroke-width:0.5;" width="346" x="876.5" y="480"/><ellipse cx="961.25" cy="496" fill="#ADD1B2" rx="11" ry="11" style="stroke:#181818;stroke-width:1.0;"/><path d="M963.5938,491.6719 C962.6563,491.2344 962.0625,491.0938 961.1875,491.0938 C958.5625,491.0938 956.5625,493.1719 956.5625,495.8906 L956.5625,497.0156 C956.5625,499.5938 958.6719,501.4844 961.5625,501.4844 C962.7813,501.4844 963.9375,501.1875 964.6875,500.6406 C965.2656,500.2344 965.5938,499.7813 965.5938,499.3906 C965.5938,498.9375 965.2031,498.5469 964.7344,498.5469 C964.5156,498.5469 964.3125,498.625 964.125,498.8125 C963.6719,499.2969 963.6719,499.2969 963.4844,499.3906 C963.0625,499.6563 962.375,499.7813 961.6094,499.7813 C959.5625,499.7813 958.2656,498.6875 958.2656,496.9844 L958.2656,495.8906 C958.2656,494.1094 959.5156,492.7969 961.25,492.7969 C961.8281,492.7969 962.4375,492.9531 962.9063,493.2031 C963.3906,493.4844 963.5625,493.7031 963.6563,494.1094 C963.7188,494.5156 963.75,494.6406 963.8906,494.7656 C964.0313,494.9063 964.2656,495.0156 964.4844,495.0156 C964.75,495.0156 965.0156,494.875 965.1875,494.6563 C965.2969,494.5 965.3281,494.3125 965.3281,493.8906 L965.3281,492.4688 C965.3281,492.0313 965.3125,491.9063 965.2188,491.75 C965.0625,491.4844 964.7813,491.3438 964.4844,491.3438 C964.1875,491.3438 963.9844,491.4375 963.7656,491.75 L963.5938,491.6719 Z " fill="#000000"/><text fill="#000000" font-family="sans-serif" font-size="14" lengthAdjust="spacing" textLength="168" x="981.75" y="500.8467">ArduinoCommunication</text><line style="stroke:#181818;stroke-width:0.5;" x1="877.5" x2="1221.5" y1="512" y2="512"/><rect fill="none" height="6" style="stroke:#C82930;stroke-width:1.0;" width="6" x="884.5" y="522.6484"/><text fill="#000000" font-family="sans-serif" font-size="14" lengthAdjust="spacing" textLength="177" x="896.5" y="528.9951">connection : serial.Serial</text><line style="stroke:#181818;stroke-width:0.5;" x1="877.5" x2="1221.5" y1="536.2969" y2="536.2969"/><ellipse cx="887.5" cy="549.9453" fill="#84BE84" rx="3" ry="3" style="stroke:#038048;stroke-width:1.0;"/><text fill="#000000" font-family="sans-serif" font-size="14" lengthAdjust="spacing" textLength="320" x="896.5" y="553.292">__init__(port: str, baudrate: int, timeout: int)</text></g><!--link py to ArduinoAppController--><g id="link_py_ArduinoAppController"><path codeLine="46" d="M606.5,105.363 C606.5,126.462 606.5,149.511 606.5,177.889 " fill="none" id="py-to-ArduinoAppController" style="stroke:#181818;stroke-width:1.0;"/><polygon fill="#181818" points="606.5,183.889,610.5,174.889,606.5,178.889,602.5,174.889,606.5,183.889" style="stroke:#181818;stroke-width:1.0;"/><text fill="#000000" font-family="sans-serif" font-size="13" lengthAdjust="spacing" textLength="37" x="607.5" y="150.0669">starts</text></g><!--link ArduinoAppController to CallbackManager--><g id="link_ArduinoAppController_CallbackManager"><path codeLine="48" d="M447.3,369.236 C370.884,410.87 289.3708,455.2804 233.9018,485.5014 " fill="none" id="ArduinoAppController-to-CallbackManager" style="stroke:#181818;stroke-width:1.0;"/><polygon fill="#181818" points="228.633,488.372,238.4499,487.5787,233.0236,485.9799,234.6224,480.5536,228.633,488.372" style="stroke:#181818;stroke-width:1.0;"/><text fill="#000000" font-family="sans-serif" font-size="13" lengthAdjust="spacing" textLength="30" x="364.5" y="422.0669">uses</text></g><!--link ArduinoAppController to ViewManager--><g id="link_ArduinoAppController_ViewManager"><path codeLine="49" d="M606.5,379.239 C606.5,405.094 606.5,426.38 606.5,449.943 " fill="none" id="ArduinoAppController-to-ViewManager" style="stroke:#181818;stroke-width:1.0;"/><polygon fill="#181818" points="606.5,455.943,610.5,446.943,606.5,450.943,602.5,446.943,606.5,455.943" style="stroke:#181818;stroke-width:1.0;"/><text fill="#000000" font-family="sans-serif" font-size="13" lengthAdjust="spacing" textLength="30" x="607.5" y="422.0669">uses</text></g><!--link ArduinoAppController to ArduinoCommunication--><g id="link_ArduinoAppController_ArduinoCommunication"><path codeLine="50" d="M765.807,367.728 C837.371,406.013 913.0696,446.5106 970.1396,477.0436 " fill="none" id="ArduinoAppController-to-ArduinoCommunication" style="stroke:#181818;stroke-width:1.0;"/><polygon fill="#181818" points="975.43,479.874,969.3813,472.1014,971.0213,477.5153,965.6074,479.1553,975.43,479.874" style="stroke:#181818;stroke-width:1.0;"/><text fill="#000000" font-family="sans-serif" font-size="13" lengthAdjust="spacing" textLength="30" x="869.5" y="422.0669">uses</text></g><!--link ViewManager to TextArea--><g id="link_ViewManager_TextArea"><path codeLine="52" d="M511.91,585.117 C472.932,611.331 434.5267,637.1601 402.7157,658.5549 " fill="none" id="ViewManager-to-TextArea" style="stroke:#181818;stroke-width:1.0;"/><polygon fill="#181818" points="397.737,661.9034,407.4374,660.1998,401.8859,659.113,402.9728,653.5615,397.737,661.9034" style="stroke:#181818;stroke-width:1.0;"/><text fill="#000000" font-family="sans-serif" font-size="13" lengthAdjust="spacing" textLength="30" x="465.5" y="628.0669">uses</text></g><!--link ViewManager to ButtonsFrame--><g id="link_ViewManager_ButtonsFrame"><path codeLine="53" d="M606.5,585.36 C606.5,611.454 606.5,634.4469 606.5,655.7623 " fill="none" id="ViewManager-to-ButtonsFrame" style="stroke:#181818;stroke-width:1.0;"/><polygon fill="#181818" points="606.5,661.7623,610.5,652.7623,606.5,656.7623,602.5,652.7623,606.5,661.7623" style="stroke:#181818;stroke-width:1.0;"/><text fill="#000000" font-family="sans-serif" font-size="13" lengthAdjust="spacing" textLength="30" x="607.5" y="628.0669">uses</text></g><!--link ViewManager to Settings--><g id="link_ViewManager_Settings"><path codeLine="54" d="M696.268,585.117 C733.259,611.331 769.5357,637.0393 799.7247,658.4341 " fill="none" id="ViewManager-to-Settings" style="stroke:#181818;stroke-width:1.0;"/><polygon fill="#181818" points="804.62,661.9034,799.5899,653.4359,800.5406,659.0123,794.9642,659.963,804.62,661.9034" style="stroke:#181818;stroke-width:1.0;"/><text fill="#000000" font-family="sans-serif" font-size="13" lengthAdjust="spacing" textLength="30" x="757.5" y="628.0669">uses</text></g><!--SRC=[ZLF1Rjim3BtxAuYUCZJn1_Wm80kwOOS21ThjQZ0AwmgH9K6YkmN3_dsq8yToawRpHHBvI3m-FYk3CS9DYzgM_d03VmgGhopXpd8uW7VQCZox00y7Vd4Mq7l95d-BGXqhrs7NQUlMtc-Sb3XZA8njLX2SOwY0zzA6GlcqJt65ncnHxUiMBJOK1BD9eVjZ905VDVtAG3_bEGSerxQTrGfP2xqA4fzD7XwWjr3NscgkwqNFAYVrAG7ODOsXEZ86Nen1PGX3pVGx2w7Hsu1CfqZdT_Ai8p5hsqI9Jmgz6MmKvnO2DJeAWmMzaXL2T_qHboTnAdZkhEe7oDjb4doiSq-xna0eoIUvh-MQKjkEsTaeYI_7szU0BQNaE8Xa7zFr8n6NPqizssa-niWcizot7z_xTNfdAPckfmyx7Rt1mznsEUUhBSOnPzNZJ5ShJnfSyllCNzCUbBEMLB9YfA3Hb8_3yLO-xuB85paiOOlThdTJ1QBb4bYtv3eUNeDYqz-vMdr-xu_hUubjey0l0uRQCozMq4MALsjcXliF_6M5Kc4nRpSKJ5OOkvzZvlj-7pTjzeZv1m00]--></g></svg>