<?xml version="1.0" encoding="us-ascii" standalone="no"?><svg xmlns="http://www.w3.org/2000/svg" xmlns:xlink="http://www.w3.org/1999/xlink" contentStyleType="text/css" height="895px" preserveAspectRatio="none" style="width:1830px;height:895px;background:#FFFFFF;" version="1.1" viewBox="0 0 1830 895" width="1830px" zoomAndPan="magnify"><defs/><g><!--cluster main--><g id="cluster_main"><path d="M758,6 L799,6 A3.75,3.75 0 0 1 801.5,8.5 L808.5,28.2969 L987,28.2969 A2.5,2.5 0 0 1 989.5,30.7969 L989.5,118.5 A2.5,2.5 0 0 1 987,121 L758,121 A2.5,2.5 0 0 1 755.5,118.5 L755.5,8.5 A2.5,2.5 0 0 1 758,6 " fill="none" style="stroke:#000000;stroke-width:1.5;"/><line style="stroke:#000000;stroke-width:1.5;" x1="755.5" x2="808.5" y1="28.2969" y2="28.2969"/><text fill="#000000" font-family="sans-serif" font-size="14" font-weight="bold" lengthAdjust="spacing" textLength="40" x="759.5" y="20.9951">main</text></g><!--class py--><g id="elem_py"><rect codeLine="1" fill="#F1F1F1" height="64.4453" id="py" rx="2.5" ry="2.5" style="stroke:#181818;stroke-width:0.5;" width="202" x="771.5" y="41"/><ellipse cx="859.25" cy="57" fill="#ADD1B2" rx="11" ry="11" style="stroke:#181818;stroke-width:1.0;"/><path d="M861.5938,52.6719 C860.6563,52.2344 860.0625,52.0938 859.1875,52.0938 C856.5625,52.0938 854.5625,54.1719 854.5625,56.8906 L854.5625,58.0156 C854.5625,60.5938 856.6719,62.4844 859.5625,62.4844 C860.7813,62.4844 861.9375,62.1875 862.6875,61.6406 C863.2656,61.2344 863.5938,60.7813 863.5938,60.3906 C863.5938,59.9375 863.2031,59.5469 862.7344,59.5469 C862.5156,59.5469 862.3125,59.625 862.125,59.8125 C861.6719,60.2969 861.6719,60.2969 861.4844,60.3906 C861.0625,60.6563 860.375,60.7813 859.6094,60.7813 C857.5625,60.7813 856.2656,59.6875 856.2656,57.9844 L856.2656,56.8906 C856.2656,55.1094 857.5156,53.7969 859.25,53.7969 C859.8281,53.7969 860.4375,53.9531 860.9063,54.2031 C861.3906,54.4844 861.5625,54.7031 861.6563,55.1094 C861.7188,55.5156 861.75,55.6406 861.8906,55.7656 C862.0313,55.9063 862.2656,56.0156 862.4844,56.0156 C862.75,56.0156 863.0156,55.875 863.1875,55.6563 C863.2969,55.5 863.3281,55.3125 863.3281,54.8906 L863.3281,53.4688 C863.3281,53.0313 863.3125,52.9063 863.2188,52.75 C863.0625,52.4844 862.7813,52.3438 862.4844,52.3438 C862.1875,52.3438 861.9844,52.4375 861.7656,52.75 L861.5938,52.6719 Z " fill="#000000"/><text fill="#000000" font-family="sans-serif" font-size="14" lengthAdjust="spacing" textLength="18" x="879.75" y="61.8467">py</text><line style="stroke:#181818;stroke-width:0.5;" x1="772.5" x2="972.5" y1="73" y2="73"/><line style="stroke:#181818;stroke-width:1.0;stroke-dasharray:1.0,2.0;" x1="772.5" x2="775.5" y1="89.1484" y2="89.1484"/><text fill="#000000" font-family="sans-serif" font-size="14" lengthAdjust="spacing" textLength="194" x="775.5" y="93.4951">Entry point for Python app</text><line style="stroke:#181818;stroke-width:1.0;stroke-dasharray:1.0,2.0;" x1="969.5" x2="972.5" y1="89.1484" y2="89.1484"/></g><!--class ArduinoAppController--><g id="elem_ArduinoAppController"><rect codeLine="5" fill="#F1F1F1" height="227.2656" id="ArduinoAppController" rx="2.5" ry="2.5" style="stroke:#181818;stroke-width:0.5;" width="318" x="713.5" y="184"/><ellipse cx="789.25" cy="200" fill="#ADD1B2" rx="11" ry="11" style="stroke:#181818;stroke-width:1.0;"/><path d="M791.5938,195.6719 C790.6563,195.2344 790.0625,195.0938 789.1875,195.0938 C786.5625,195.0938 784.5625,197.1719 784.5625,199.8906 L784.5625,201.0156 C784.5625,203.5938 786.6719,205.4844 789.5625,205.4844 C790.7813,205.4844 791.9375,205.1875 792.6875,204.6406 C793.2656,204.2344 793.5938,203.7813 793.5938,203.3906 C793.5938,202.9375 793.2031,202.5469 792.7344,202.5469 C792.5156,202.5469 792.3125,202.625 792.125,202.8125 C791.6719,203.2969 791.6719,203.2969 791.4844,203.3906 C791.0625,203.6563 790.375,203.7813 789.6094,203.7813 C787.5625,203.7813 786.2656,202.6875 786.2656,200.9844 L786.2656,199.8906 C786.2656,198.1094 787.5156,196.7969 789.25,196.7969 C789.8281,196.7969 790.4375,196.9531 790.9063,197.2031 C791.3906,197.4844 791.5625,197.7031 791.6563,198.1094 C791.7188,198.5156 791.75,198.6406 791.8906,198.7656 C792.0313,198.9063 792.2656,199.0156 792.4844,199.0156 C792.75,199.0156 793.0156,198.875 793.1875,198.6563 C793.2969,198.5 793.3281,198.3125 793.3281,197.8906 L793.3281,196.4688 C793.3281,196.0313 793.3125,195.9063 793.2188,195.75 C793.0625,195.4844 792.7813,195.3438 792.4844,195.3438 C792.1875,195.3438 791.9844,195.4375 791.7656,195.75 L791.5938,195.6719 Z " fill="#000000"/><text fill="#000000" font-family="sans-serif" font-size="14" lengthAdjust="spacing" textLength="158" x="809.75" y="204.8467">ArduinoAppController</text><line style="stroke:#181818;stroke-width:0.5;" x1="714.5" x2="1030.5" y1="216" y2="216"/><rect fill="none" height="6" style="stroke:#C82930;stroke-width:1.0;" width="6" x="721.5" y="226.6484"/><text fill="#000000" font-family="sans-serif" font-size="14" lengthAdjust="spacing" textLength="118" x="733.5" y="232.9951">root : tkinter.Tk</text><rect fill="none" height="6" style="stroke:#C82930;stroke-width:1.0;" width="6" x="721.5" y="242.9453"/><text fill="#000000" font-family="sans-serif" font-size="14" lengthAdjust="spacing" textLength="153" x="733.5" y="249.292">scheduler : Scheduler</text><rect fill="none" height="6" style="stroke:#C82930;stroke-width:1.0;" width="6" x="721.5" y="259.2422"/><text fill="#000000" font-family="sans-serif" font-size="14" lengthAdjust="spacing" textLength="264" x="733.5" y="265.5889">callback_manager : CallbackManager</text><rect fill="none" height="6" style="stroke:#C82930;stroke-width:1.0;" width="6" x="721.5" y="275.5391"/><text fill="#000000" font-family="sans-serif" font-size="14" lengthAdjust="spacing" textLength="210" x="733.5" y="281.8857">view_manager : ViewManager</text><rect fill="none" height="6" style="stroke:#C82930;stroke-width:1.0;" width="6" x="721.5" y="291.8359"/><text fill="#000000" font-family="sans-serif" font-size="14" lengthAdjust="spacing" textLength="292" x="733.5" y="298.1826">communication : ArduinoCommunication</text><line style="stroke:#181818;stroke-width:0.5;" x1="714.5" x2="1030.5" y1="305.4844" y2="305.4844"/><ellipse cx="724.5" cy="319.1328" fill="#84BE84" rx="3" ry="3" style="stroke:#038048;stroke-width:1.0;"/><text fill="#000000" font-family="sans-serif" font-size="14" lengthAdjust="spacing" textLength="176" x="733.5" y="322.4795">__init__(root: tkinter.Tk)</text><ellipse cx="724.5" cy="335.4297" fill="#84BE84" rx="3" ry="3" style="stroke:#038048;stroke-width:1.0;"/><text fill="#000000" font-family="sans-serif" font-size="14" lengthAdjust="spacing" textLength="99" x="733.5" y="338.7764">toggle_start()</text><ellipse cx="724.5" cy="351.7266" fill="#84BE84" rx="3" ry="3" style="stroke:#038048;stroke-width:1.0;"/><text fill="#000000" font-family="sans-serif" font-size="14" lengthAdjust="spacing" textLength="105" x="733.5" y="355.0732">read_weights()</text><ellipse cx="724.5" cy="368.0234" fill="#84BE84" rx="3" ry="3" style="stroke:#038048;stroke-width:1.0;"/><text fill="#000000" font-family="sans-serif" font-size="14" lengthAdjust="spacing" textLength="83" x="733.5" y="371.3701">clear_text()</text><ellipse cx="724.5" cy="384.3203" fill="#84BE84" rx="3" ry="3" style="stroke:#038048;stroke-width:1.0;"/><text fill="#000000" font-family="sans-serif" font-size="14" lengthAdjust="spacing" textLength="74" x="733.5" y="387.667">calibrate()</text><ellipse cx="724.5" cy="400.6172" fill="#84BE84" rx="3" ry="3" style="stroke:#038048;stroke-width:1.0;"/><text fill="#000000" font-family="sans-serif" font-size="14" lengthAdjust="spacing" textLength="127" x="733.5" y="403.9639">update_settings()</text></g><!--class Scheduler--><g id="elem_Scheduler"><rect codeLine="19" fill="#F1F1F1" height="113.1875" id="Scheduler" rx="2.5" ry="2.5" style="stroke:#181818;stroke-width:0.5;" width="539" x="7" y="545"/><ellipse cx="236.75" cy="561" fill="#ADD1B2" rx="11" ry="11" style="stroke:#181818;stroke-width:1.0;"/><path d="M239.0938,556.6719 C238.1563,556.2344 237.5625,556.0938 236.6875,556.0938 C234.0625,556.0938 232.0625,558.1719 232.0625,560.8906 L232.0625,562.0156 C232.0625,564.5938 234.1719,566.4844 237.0625,566.4844 C238.2813,566.4844 239.4375,566.1875 240.1875,565.6406 C240.7656,565.2344 241.0938,564.7813 241.0938,564.3906 C241.0938,563.9375 240.7031,563.5469 240.2344,563.5469 C240.0156,563.5469 239.8125,563.625 239.625,563.8125 C239.1719,564.2969 239.1719,564.2969 238.9844,564.3906 C238.5625,564.6563 237.875,564.7813 237.1094,564.7813 C235.0625,564.7813 233.7656,563.6875 233.7656,561.9844 L233.7656,560.8906 C233.7656,559.1094 235.0156,557.7969 236.75,557.7969 C237.3281,557.7969 237.9375,557.9531 238.4063,558.2031 C238.8906,558.4844 239.0625,558.7031 239.1563,559.1094 C239.2188,559.5156 239.25,559.6406 239.3906,559.7656 C239.5313,559.9063 239.7656,560.0156 239.9844,560.0156 C240.25,560.0156 240.5156,559.875 240.6875,559.6563 C240.7969,559.5 240.8281,559.3125 240.8281,558.8906 L240.8281,557.4688 C240.8281,557.0313 240.8125,556.9063 240.7188,556.75 C240.5625,556.4844 240.2813,556.3438 239.9844,556.3438 C239.6875,556.3438 239.4844,556.4375 239.2656,556.75 L239.0938,556.6719 Z " fill="#000000"/><text fill="#000000" font-family="sans-serif" font-size="14" lengthAdjust="spacing" textLength="71" x="257.25" y="565.8467">Scheduler</text><line style="stroke:#181818;stroke-width:0.5;" x1="8" x2="545" y1="577" y2="577"/><line style="stroke:#181818;stroke-width:0.5;" x1="8" x2="545" y1="585" y2="585"/><ellipse cx="18" cy="598.6484" fill="#84BE84" rx="3" ry="3" style="stroke:#038048;stroke-width:1.0;"/><text fill="#000000" font-family="sans-serif" font-size="14" lengthAdjust="spacing" textLength="62" x="27" y="601.9951">__init__()</text><ellipse cx="18" cy="614.9453" fill="#84BE84" rx="3" ry="3" style="stroke:#038048;stroke-width:1.0;"/><text fill="#000000" font-family="sans-serif" font-size="14" lengthAdjust="spacing" textLength="381" x="27" y="618.292">schedule(task_name, target_function, interval, delay)</text><ellipse cx="18" cy="631.2422" fill="#84BE84" rx="3" ry="3" style="stroke:#038048;stroke-width:1.0;"/><text fill="#000000" font-family="sans-serif" font-size="14" lengthAdjust="spacing" textLength="121" x="27" y="634.5889">stop(task_name)</text><ellipse cx="18" cy="647.5391" fill="#84BE84" rx="3" ry="3" style="stroke:#038048;stroke-width:1.0;"/><text fill="#000000" font-family="sans-serif" font-size="14" lengthAdjust="spacing" textLength="513" x="27" y="650.8857">_task_wrapper(task_name, target_function, interval, delay, stop_event)</text></g><!--class CallbackManager--><g id="elem_CallbackManager"><rect codeLine="26" fill="#F1F1F1" height="96.8906" id="CallbackManager" rx="2.5" ry="2.5" style="stroke:#181818;stroke-width:0.5;" width="329" x="581" y="553"/><ellipse cx="680.25" cy="569" fill="#ADD1B2" rx="11" ry="11" style="stroke:#181818;stroke-width:1.0;"/><path d="M682.5938,564.6719 C681.6563,564.2344 681.0625,564.0938 680.1875,564.0938 C677.5625,564.0938 675.5625,566.1719 675.5625,568.8906 L675.5625,570.0156 C675.5625,572.5938 677.6719,574.4844 680.5625,574.4844 C681.7813,574.4844 682.9375,574.1875 683.6875,573.6406 C684.2656,573.2344 684.5938,572.7813 684.5938,572.3906 C684.5938,571.9375 684.2031,571.5469 683.7344,571.5469 C683.5156,571.5469 683.3125,571.625 683.125,571.8125 C682.6719,572.2969 682.6719,572.2969 682.4844,572.3906 C682.0625,572.6563 681.375,572.7813 680.6094,572.7813 C678.5625,572.7813 677.2656,571.6875 677.2656,569.9844 L677.2656,568.8906 C677.2656,567.1094 678.5156,565.7969 680.25,565.7969 C680.8281,565.7969 681.4375,565.9531 681.9063,566.2031 C682.3906,566.4844 682.5625,566.7031 682.6563,567.1094 C682.7188,567.5156 682.75,567.6406 682.8906,567.7656 C683.0313,567.9063 683.2656,568.0156 683.4844,568.0156 C683.75,568.0156 684.0156,567.875 684.1875,567.6563 C684.2969,567.5 684.3281,567.3125 684.3281,566.8906 L684.3281,565.4688 C684.3281,565.0313 684.3125,564.9063 684.2188,564.75 C684.0625,564.4844 683.7813,564.3438 683.4844,564.3438 C683.1875,564.3438 682.9844,564.4375 682.7656,564.75 L682.5938,564.6719 Z " fill="#000000"/><text fill="#000000" font-family="sans-serif" font-size="14" lengthAdjust="spacing" textLength="122" x="700.75" y="573.8467">CallbackManager</text><line style="stroke:#181818;stroke-width:0.5;" x1="582" x2="909" y1="585" y2="585"/><line style="stroke:#181818;stroke-width:0.5;" x1="582" x2="909" y1="593" y2="593"/><ellipse cx="592" cy="606.6484" fill="#84BE84" rx="3" ry="3" style="stroke:#038048;stroke-width:1.0;"/><text fill="#000000" font-family="sans-serif" font-size="14" lengthAdjust="spacing" textLength="62" x="601" y="609.9951">__init__()</text><ellipse cx="592" cy="622.9453" fill="#84BE84" rx="3" ry="3" style="stroke:#038048;stroke-width:1.0;"/><text fill="#000000" font-family="sans-serif" font-size="14" lengthAdjust="spacing" textLength="303" x="601" y="626.292">register(event: Events, callback: function)</text><ellipse cx="592" cy="639.2422" fill="#84BE84" rx="3" ry="3" style="stroke:#038048;stroke-width:1.0;"/><text fill="#000000" font-family="sans-serif" font-size="14" lengthAdjust="spacing" textLength="168" x="601" y="642.5889">execute(event: Events)</text></g><!--class ViewManager--><g id="elem_ViewManager"><rect codeLine="32" fill="#F1F1F1" height="227.2656" id="ViewManager" rx="2.5" ry="2.5" style="stroke:#181818;stroke-width:0.5;" width="470" x="945.5" y="488"/><ellipse cx="1128.75" cy="504" fill="#ADD1B2" rx="11" ry="11" style="stroke:#181818;stroke-width:1.0;"/><path d="M1131.0938,499.6719 C1130.1563,499.2344 1129.5625,499.0938 1128.6875,499.0938 C1126.0625,499.0938 1124.0625,501.1719 1124.0625,503.8906 L1124.0625,505.0156 C1124.0625,507.5938 1126.1719,509.4844 1129.0625,509.4844 C1130.2813,509.4844 1131.4375,509.1875 1132.1875,508.6406 C1132.7656,508.2344 1133.0938,507.7813 1133.0938,507.3906 C1133.0938,506.9375 1132.7031,506.5469 1132.2344,506.5469 C1132.0156,506.5469 1131.8125,506.625 1131.625,506.8125 C1131.1719,507.2969 1131.1719,507.2969 1130.9844,507.3906 C1130.5625,507.6563 1129.875,507.7813 1129.1094,507.7813 C1127.0625,507.7813 1125.7656,506.6875 1125.7656,504.9844 L1125.7656,503.8906 C1125.7656,502.1094 1127.0156,500.7969 1128.75,500.7969 C1129.3281,500.7969 1129.9375,500.9531 1130.4063,501.2031 C1130.8906,501.4844 1131.0625,501.7031 1131.1563,502.1094 C1131.2188,502.5156 1131.25,502.6406 1131.3906,502.7656 C1131.5313,502.9063 1131.7656,503.0156 1131.9844,503.0156 C1132.25,503.0156 1132.5156,502.875 1132.6875,502.6563 C1132.7969,502.5 1132.8281,502.3125 1132.8281,501.8906 L1132.8281,500.4688 C1132.8281,500.0313 1132.8125,499.9063 1132.7188,499.75 C1132.5625,499.4844 1132.2813,499.3438 1131.9844,499.3438 C1131.6875,499.3438 1131.4844,499.4375 1131.2656,499.75 L1131.0938,499.6719 Z " fill="#000000"/><text fill="#000000" font-family="sans-serif" font-size="14" lengthAdjust="spacing" textLength="95" x="1149.25" y="508.8467">ViewManager</text><line style="stroke:#181818;stroke-width:0.5;" x1="946.5" x2="1414.5" y1="520" y2="520"/><rect fill="none" height="6" style="stroke:#C82930;stroke-width:1.0;" width="6" x="953.5" y="530.6484"/><text fill="#000000" font-family="sans-serif" font-size="14" lengthAdjust="spacing" textLength="118" x="965.5" y="536.9951">root : tkinter.Tk</text><rect fill="none" height="6" style="stroke:#C82930;stroke-width:1.0;" width="6" x="953.5" y="546.9453"/><text fill="#000000" font-family="sans-serif" font-size="14" lengthAdjust="spacing" textLength="148" x="965.5" y="553.292">text_area : TextArea</text><rect fill="none" height="6" style="stroke:#C82930;stroke-width:1.0;" width="6" x="953.5" y="563.2422"/><text fill="#000000" font-family="sans-serif" font-size="14" lengthAdjust="spacing" textLength="172" x="965.5" y="569.5889">buttons : ButtonsFrame</text><rect fill="none" height="6" style="stroke:#C82930;stroke-width:1.0;" width="6" x="953.5" y="579.5391"/><text fill="#000000" font-family="sans-serif" font-size="14" lengthAdjust="spacing" textLength="133" x="965.5" y="585.8857">settings : Settings</text><line style="stroke:#181818;stroke-width:0.5;" x1="946.5" x2="1414.5" y1="593.1875" y2="593.1875"/><ellipse cx="956.5" cy="606.8359" fill="#84BE84" rx="3" ry="3" style="stroke:#038048;stroke-width:1.0;"/><text fill="#000000" font-family="sans-serif" font-size="14" lengthAdjust="spacing" textLength="444" x="965.5" y="610.1826">__init__(root: tkinter.Tk, callback_manager: CallbackManager)</text><ellipse cx="956.5" cy="623.1328" fill="#84BE84" rx="3" ry="3" style="stroke:#038048;stroke-width:1.0;"/><text fill="#000000" font-family="sans-serif" font-size="14" lengthAdjust="spacing" textLength="121" x="965.5" y="626.4795">clear_text_area()</text><ellipse cx="956.5" cy="639.4297" fill="#84BE84" rx="3" ry="3" style="stroke:#038048;stroke-width:1.0;"/><text fill="#000000" font-family="sans-serif" font-size="14" lengthAdjust="spacing" textLength="150" x="965.5" y="642.7764">insert_text_area(txt)</text><ellipse cx="956.5" cy="655.7266" fill="#84BE84" rx="3" ry="3" style="stroke:#038048;stroke-width:1.0;"/><text fill="#000000" font-family="sans-serif" font-size="14" lengthAdjust="spacing" textLength="220" x="965.5" y="659.0732">get_setting_val(setting_name)</text><ellipse cx="956.5" cy="672.0234" fill="#84BE84" rx="3" ry="3" style="stroke:#038048;stroke-width:1.0;"/><text fill="#000000" font-family="sans-serif" font-size="14" lengthAdjust="spacing" textLength="116" x="965.5" y="675.3701">get_toggle_val()</text><ellipse cx="956.5" cy="688.3203" fill="#84BE84" rx="3" ry="3" style="stroke:#038048;stroke-width:1.0;"/><text fill="#000000" font-family="sans-serif" font-size="14" lengthAdjust="spacing" textLength="104" x="965.5" y="691.667">ask(title, text)</text><ellipse cx="956.5" cy="704.6172" fill="#84BE84" rx="3" ry="3" style="stroke:#038048;stroke-width:1.0;"/><text fill="#000000" font-family="sans-serif" font-size="14" lengthAdjust="spacing" textLength="128" x="965.5" y="707.9639">inform(title, text)</text></g><!--class TextArea--><g id="elem_TextArea"><rect codeLine="46" fill="#F1F1F1" height="96.8906" id="TextArea" rx="2.5" ry="2.5" style="stroke:#181818;stroke-width:0.5;" width="138" x="804.5" y="792"/><ellipse cx="837.5" cy="808" fill="#ADD1B2" rx="11" ry="11" style="stroke:#181818;stroke-width:1.0;"/><path d="M839.8438,803.6719 C838.9063,803.2344 838.3125,803.0938 837.4375,803.0938 C834.8125,803.0938 832.8125,805.1719 832.8125,807.8906 L832.8125,809.0156 C832.8125,811.5938 834.9219,813.4844 837.8125,813.4844 C839.0313,813.4844 840.1875,813.1875 840.9375,812.6406 C841.5156,812.2344 841.8438,811.7813 841.8438,811.3906 C841.8438,810.9375 841.4531,810.5469 840.9844,810.5469 C840.7656,810.5469 840.5625,810.625 840.375,810.8125 C839.9219,811.2969 839.9219,811.2969 839.7344,811.3906 C839.3125,811.6563 838.625,811.7813 837.8594,811.7813 C835.8125,811.7813 834.5156,810.6875 834.5156,808.9844 L834.5156,807.8906 C834.5156,806.1094 835.7656,804.7969 837.5,804.7969 C838.0781,804.7969 838.6875,804.9531 839.1563,805.2031 C839.6406,805.4844 839.8125,805.7031 839.9063,806.1094 C839.9688,806.5156 840,806.6406 840.1406,806.7656 C840.2813,806.9063 840.5156,807.0156 840.7344,807.0156 C841,807.0156 841.2656,806.875 841.4375,806.6563 C841.5469,806.5 841.5781,806.3125 841.5781,805.8906 L841.5781,804.4688 C841.5781,804.0313 841.5625,803.9063 841.4688,803.75 C841.3125,803.4844 841.0313,803.3438 840.7344,803.3438 C840.4375,803.3438 840.2344,803.4375 840.0156,803.75 L839.8438,803.6719 Z " fill="#000000"/><text fill="#000000" font-family="sans-serif" font-size="14" lengthAdjust="spacing" textLength="66" x="855.5" y="812.8467">TextArea</text><line style="stroke:#181818;stroke-width:0.5;" x1="805.5" x2="941.5" y1="824" y2="824"/><line style="stroke:#181818;stroke-width:0.5;" x1="805.5" x2="941.5" y1="832" y2="832"/><ellipse cx="815.5" cy="845.6484" fill="#84BE84" rx="3" ry="3" style="stroke:#038048;stroke-width:1.0;"/><text fill="#000000" font-family="sans-serif" font-size="14" lengthAdjust="spacing" textLength="111" x="824.5" y="848.9951">__init__(parent)</text><ellipse cx="815.5" cy="861.9453" fill="#84BE84" rx="3" ry="3" style="stroke:#038048;stroke-width:1.0;"/><text fill="#000000" font-family="sans-serif" font-size="14" lengthAdjust="spacing" textLength="112" x="824.5" y="865.292">insert(text: str)</text><ellipse cx="815.5" cy="878.2422" fill="#84BE84" rx="3" ry="3" style="stroke:#038048;stroke-width:1.0;"/><text fill="#000000" font-family="sans-serif" font-size="14" lengthAdjust="spacing" textLength="45" x="824.5" y="881.5889">clear()</text></g><!--class ButtonsFrame--><g id="elem_ButtonsFrame"><rect codeLine="52" fill="#F1F1F1" height="80.5938" id="ButtonsFrame" rx="2.5" ry="2.5" style="stroke:#181818;stroke-width:0.5;" width="405" x="978" y="800"/><ellipse cx="1125.25" cy="816" fill="#ADD1B2" rx="11" ry="11" style="stroke:#181818;stroke-width:1.0;"/><path d="M1127.5938,811.6719 C1126.6563,811.2344 1126.0625,811.0938 1125.1875,811.0938 C1122.5625,811.0938 1120.5625,813.1719 1120.5625,815.8906 L1120.5625,817.0156 C1120.5625,819.5938 1122.6719,821.4844 1125.5625,821.4844 C1126.7813,821.4844 1127.9375,821.1875 1128.6875,820.6406 C1129.2656,820.2344 1129.5938,819.7813 1129.5938,819.3906 C1129.5938,818.9375 1129.2031,818.5469 1128.7344,818.5469 C1128.5156,818.5469 1128.3125,818.625 1128.125,818.8125 C1127.6719,819.2969 1127.6719,819.2969 1127.4844,819.3906 C1127.0625,819.6563 1126.375,819.7813 1125.6094,819.7813 C1123.5625,819.7813 1122.2656,818.6875 1122.2656,816.9844 L1122.2656,815.8906 C1122.2656,814.1094 1123.5156,812.7969 1125.25,812.7969 C1125.8281,812.7969 1126.4375,812.9531 1126.9063,813.2031 C1127.3906,813.4844 1127.5625,813.7031 1127.6563,814.1094 C1127.7188,814.5156 1127.75,814.6406 1127.8906,814.7656 C1128.0313,814.9063 1128.2656,815.0156 1128.4844,815.0156 C1128.75,815.0156 1129.0156,814.875 1129.1875,814.6563 C1129.2969,814.5 1129.3281,814.3125 1129.3281,813.8906 L1129.3281,812.4688 C1129.3281,812.0313 1129.3125,811.9063 1129.2188,811.75 C1129.0625,811.4844 1128.7813,811.3438 1128.4844,811.3438 C1128.1875,811.3438 1127.9844,811.4375 1127.7656,811.75 L1127.5938,811.6719 Z " fill="#000000"/><text fill="#000000" font-family="sans-serif" font-size="14" lengthAdjust="spacing" textLength="102" x="1145.75" y="820.8467">ButtonsFrame</text><line style="stroke:#181818;stroke-width:0.5;" x1="979" x2="1382" y1="832" y2="832"/><line style="stroke:#181818;stroke-width:0.5;" x1="979" x2="1382" y1="840" y2="840"/><ellipse cx="989" cy="853.6484" fill="#84BE84" rx="3" ry="3" style="stroke:#038048;stroke-width:1.0;"/><text fill="#000000" font-family="sans-serif" font-size="14" lengthAdjust="spacing" textLength="379" x="998" y="856.9951">__init__(parent, callback_manager: CallbackManager)</text><ellipse cx="989" cy="869.9453" fill="#84BE84" rx="3" ry="3" style="stroke:#038048;stroke-width:1.0;"/><text fill="#000000" font-family="sans-serif" font-size="14" lengthAdjust="spacing" textLength="116" x="998" y="873.292">get_toggle_val()</text></g><!--class Settings--><g id="elem_Settings"><rect codeLine="57" fill="#F1F1F1" height="96.8906" id="Settings" rx="2.5" ry="2.5" style="stroke:#181818;stroke-width:0.5;" width="405" x="1418" y="792"/><ellipse cx="1585.75" cy="808" fill="#ADD1B2" rx="11" ry="11" style="stroke:#181818;stroke-width:1.0;"/><path d="M1588.0938,803.6719 C1587.1563,803.2344 1586.5625,803.0938 1585.6875,803.0938 C1583.0625,803.0938 1581.0625,805.1719 1581.0625,807.8906 L1581.0625,809.0156 C1581.0625,811.5938 1583.1719,813.4844 1586.0625,813.4844 C1587.2813,813.4844 1588.4375,813.1875 1589.1875,812.6406 C1589.7656,812.2344 1590.0938,811.7813 1590.0938,811.3906 C1590.0938,810.9375 1589.7031,810.5469 1589.2344,810.5469 C1589.0156,810.5469 1588.8125,810.625 1588.625,810.8125 C1588.1719,811.2969 1588.1719,811.2969 1587.9844,811.3906 C1587.5625,811.6563 1586.875,811.7813 1586.1094,811.7813 C1584.0625,811.7813 1582.7656,810.6875 1582.7656,808.9844 L1582.7656,807.8906 C1582.7656,806.1094 1584.0156,804.7969 1585.75,804.7969 C1586.3281,804.7969 1586.9375,804.9531 1587.4063,805.2031 C1587.8906,805.4844 1588.0625,805.7031 1588.1563,806.1094 C1588.2188,806.5156 1588.25,806.6406 1588.3906,806.7656 C1588.5313,806.9063 1588.7656,807.0156 1588.9844,807.0156 C1589.25,807.0156 1589.5156,806.875 1589.6875,806.6563 C1589.7969,806.5 1589.8281,806.3125 1589.8281,805.8906 L1589.8281,804.4688 C1589.8281,804.0313 1589.8125,803.9063 1589.7188,803.75 C1589.5625,803.4844 1589.2813,803.3438 1588.9844,803.3438 C1588.6875,803.3438 1588.4844,803.4375 1588.2656,803.75 L1588.0938,803.6719 Z " fill="#000000"/><text fill="#000000" font-family="sans-serif" font-size="14" lengthAdjust="spacing" textLength="61" x="1606.25" y="812.8467">Settings</text><line style="stroke:#181818;stroke-width:0.5;" x1="1419" x2="1822" y1="824" y2="824"/><line style="stroke:#181818;stroke-width:0.5;" x1="1419" x2="1822" y1="832" y2="832"/><ellipse cx="1429" cy="845.6484" fill="#84BE84" rx="3" ry="3" style="stroke:#038048;stroke-width:1.0;"/><text fill="#000000" font-family="sans-serif" font-size="14" lengthAdjust="spacing" textLength="379" x="1438" y="848.9951">__init__(parent, callback_manager: CallbackManager)</text><ellipse cx="1429" cy="861.9453" fill="#84BE84" rx="3" ry="3" style="stroke:#038048;stroke-width:1.0;"/><text fill="#000000" font-family="sans-serif" font-size="14" lengthAdjust="spacing" textLength="76" x="1438" y="865.292">next_row()</text><ellipse cx="1429" cy="878.2422" fill="#84BE84" rx="3" ry="3" style="stroke:#038048;stroke-width:1.0;"/><text fill="#000000" font-family="sans-serif" font-size="14" lengthAdjust="spacing" textLength="75" x="1438" y="881.5889">get(name)</text></g><!--class ArduinoCommunication--><g id="elem_ArduinoCommunication"><rect codeLine="63" fill="#F1F1F1" height="162.0781" id="ArduinoCommunication" rx="2.5" ry="2.5" style="stroke:#181818;stroke-width:0.5;" width="346" x="1450.5" y="520.5"/><ellipse cx="1535.25" cy="536.5" fill="#ADD1B2" rx="11" ry="11" style="stroke:#181818;stroke-width:1.0;"/><path d="M1537.5938,532.1719 C1536.6563,531.7344 1536.0625,531.5938 1535.1875,531.5938 C1532.5625,531.5938 1530.5625,533.6719 1530.5625,536.3906 L1530.5625,537.5156 C1530.5625,540.0938 1532.6719,541.9844 1535.5625,541.9844 C1536.7813,541.9844 1537.9375,541.6875 1538.6875,541.1406 C1539.2656,540.7344 1539.5938,540.2813 1539.5938,539.8906 C1539.5938,539.4375 1539.2031,539.0469 1538.7344,539.0469 C1538.5156,539.0469 1538.3125,539.125 1538.125,539.3125 C1537.6719,539.7969 1537.6719,539.7969 1537.4844,539.8906 C1537.0625,540.1563 1536.375,540.2813 1535.6094,540.2813 C1533.5625,540.2813 1532.2656,539.1875 1532.2656,537.4844 L1532.2656,536.3906 C1532.2656,534.6094 1533.5156,533.2969 1535.25,533.2969 C1535.8281,533.2969 1536.4375,533.4531 1536.9063,533.7031 C1537.3906,533.9844 1537.5625,534.2031 1537.6563,534.6094 C1537.7188,535.0156 1537.75,535.1406 1537.8906,535.2656 C1538.0313,535.4063 1538.2656,535.5156 1538.4844,535.5156 C1538.75,535.5156 1539.0156,535.375 1539.1875,535.1563 C1539.2969,535 1539.3281,534.8125 1539.3281,534.3906 L1539.3281,532.9688 C1539.3281,532.5313 1539.3125,532.4063 1539.2188,532.25 C1539.0625,531.9844 1538.7813,531.8438 1538.4844,531.8438 C1538.1875,531.8438 1537.9844,531.9375 1537.7656,532.25 L1537.5938,532.1719 Z " fill="#000000"/><text fill="#000000" font-family="sans-serif" font-size="14" lengthAdjust="spacing" textLength="168" x="1555.75" y="541.3467">ArduinoCommunication</text><line style="stroke:#181818;stroke-width:0.5;" x1="1451.5" x2="1795.5" y1="552.5" y2="552.5"/><rect fill="none" height="6" style="stroke:#C82930;stroke-width:1.0;" width="6" x="1458.5" y="563.1484"/><text fill="#000000" font-family="sans-serif" font-size="14" lengthAdjust="spacing" textLength="177" x="1470.5" y="569.4951">connection : serial.Serial</text><line style="stroke:#181818;stroke-width:0.5;" x1="1451.5" x2="1795.5" y1="576.7969" y2="576.7969"/><ellipse cx="1461.5" cy="590.4453" fill="#84BE84" rx="3" ry="3" style="stroke:#038048;stroke-width:1.0;"/><text fill="#000000" font-family="sans-serif" font-size="14" lengthAdjust="spacing" textLength="320" x="1470.5" y="593.792">__init__(port: str, baudrate: int, timeout: int)</text><ellipse cx="1461.5" cy="606.7422" fill="#84BE84" rx="3" ry="3" style="stroke:#038048;stroke-width:1.0;"/><text fill="#000000" font-family="sans-serif" font-size="14" lengthAdjust="spacing" textLength="177" x="1470.5" y="610.0889">send_message(message)</text><ellipse cx="1461.5" cy="623.0391" fill="#84BE84" rx="3" ry="3" style="stroke:#038048;stroke-width:1.0;"/><text fill="#000000" font-family="sans-serif" font-size="14" lengthAdjust="spacing" textLength="112" x="1470.5" y="626.3857">read_message()</text><ellipse cx="1461.5" cy="639.3359" fill="#84BE84" rx="3" ry="3" style="stroke:#038048;stroke-width:1.0;"/><text fill="#000000" font-family="sans-serif" font-size="14" lengthAdjust="spacing" textLength="284" x="1470.5" y="642.6826">calibrate(scale_index, calibration_mass)</text><ellipse cx="1461.5" cy="655.6328" fill="#84BE84" rx="3" ry="3" style="stroke:#038048;stroke-width:1.0;"/><text fill="#000000" font-family="sans-serif" font-size="14" lengthAdjust="spacing" textLength="98" x="1470.5" y="658.9795">get_weights()</text><ellipse cx="1461.5" cy="671.9297" fill="#84BE84" rx="3" ry="3" style="stroke:#038048;stroke-width:1.0;"/><text fill="#000000" font-family="sans-serif" font-size="14" lengthAdjust="spacing" textLength="47" x="1470.5" y="675.2764">close()</text></g><!--link py to ArduinoAppController--><g id="link_py_ArduinoAppController"><path codeLine="73" d="M872.5,105.407 C872.5,126.25 872.5,148.997 872.5,177.867 " fill="none" id="py-to-ArduinoAppController" style="stroke:#181818;stroke-width:1.0;"/><polygon fill="#181818" points="872.5,183.867,876.5,174.867,872.5,178.867,868.5,174.867,872.5,183.867" style="stroke:#181818;stroke-width:1.0;"/><text fill="#000000" font-family="sans-serif" font-size="13" lengthAdjust="spacing" textLength="37" x="873.5" y="150.0669">starts</text></g><!--link ArduinoAppController to Scheduler--><g id="link_ArduinoAppController_Scheduler"><path codeLine="75" d="M713.175,379.232 C609.9,431.562 483.3801,495.6721 391.7051,542.1241 " fill="none" id="ArduinoAppController-to-Scheduler" style="stroke:#181818;stroke-width:1.0;"/><polygon fill="#181818" points="386.353,544.836,396.1892,544.3362,390.8131,542.576,392.5732,537.2,386.353,544.836" style="stroke:#181818;stroke-width:1.0;"/><text fill="#000000" font-family="sans-serif" font-size="13" lengthAdjust="spacing" textLength="30" x="575.5" y="454.0669">uses</text></g><!--link ArduinoAppController to CallbackManager--><g id="link_ArduinoAppController_CallbackManager"><path codeLine="76" d="M825.029,411.383 C804.457,460.304 783.8079,509.4051 767.8629,547.3221 " fill="none" id="ArduinoAppController-to-CallbackManager" style="stroke:#181818;stroke-width:1.0;"/><polygon fill="#181818" points="765.537,552.853,772.713,546.1073,767.4752,548.244,765.3385,543.0061,765.537,552.853" style="stroke:#181818;stroke-width:1.0;"/><text fill="#000000" font-family="sans-serif" font-size="13" lengthAdjust="spacing" textLength="30" x="810.5" y="454.0669">uses</text></g><!--link ArduinoAppController to ViewManager--><g id="link_ArduinoAppController_ViewManager"><path codeLine="77" d="M987.626,411.383 C1013.08,436.346 1035.7762,458.595 1061.2262,483.553 " fill="none" id="ArduinoAppController-to-ViewManager" style="stroke:#181818;stroke-width:1.0;"/><polygon fill="#181818" points="1065.51,487.754,1061.8849,478.5966,1061.9401,484.2531,1056.2835,484.3084,1065.51,487.754" style="stroke:#181818;stroke-width:1.0;"/><text fill="#000000" font-family="sans-serif" font-size="13" lengthAdjust="spacing" textLength="30" x="1027.5" y="454.0669">uses</text></g><!--link ArduinoAppController to ArduinoCommunication--><g id="link_ArduinoAppController_ArduinoCommunication"><path codeLine="78" d="M1031.54,342.761 C1145.51,376.759 1301.38,427.977 1432.5,488 C1453.41,497.571 1469.7217,505.8773 1490.4817,517.4723 " fill="none" id="ArduinoAppController-to-ArduinoCommunication" style="stroke:#181818;stroke-width:1.0;"/><polygon fill="#181818" points="1495.72,520.398,1489.813,512.5172,1491.3547,517.9599,1485.912,519.5016,1495.72,520.398" style="stroke:#181818;stroke-width:1.0;"/><text fill="#000000" font-family="sans-serif" font-size="13" lengthAdjust="spacing" textLength="30" x="1360.5" y="454.0669">uses</text></g><!--link ViewManager to TextArea--><g id="link_ViewManager_TextArea"><path codeLine="80" d="M1034.64,715.1 C999.523,742.212 968.6194,766.0695 939.8084,788.311 " fill="none" id="ViewManager-to-TextArea" style="stroke:#181818;stroke-width:1.0;"/><polygon fill="#181818" points="935.059,791.9775,944.6274,789.6441,939.0169,788.9221,939.7388,783.3115,935.059,791.9775" style="stroke:#181818;stroke-width:1.0;"/><text fill="#000000" font-family="sans-serif" font-size="13" lengthAdjust="spacing" textLength="30" x="991.5" y="758.0669">uses</text></g><!--link ViewManager to ButtonsFrame--><g id="link_ViewManager_ButtonsFrame"><path codeLine="81" d="M1180.5,715.1 C1180.5,745.556 1180.5,770.532 1180.5,793.9561 " fill="none" id="ViewManager-to-ButtonsFrame" style="stroke:#181818;stroke-width:1.0;"/><polygon fill="#181818" points="1180.5,799.9561,1184.5,790.9561,1180.5,794.9561,1176.5,790.9561,1180.5,799.9561" style="stroke:#181818;stroke-width:1.0;"/><text fill="#000000" font-family="sans-serif" font-size="13" lengthAdjust="spacing" textLength="30" x="1181.5" y="758.0669">uses</text></g><!--link ViewManager to Settings--><g id="link_ViewManager_Settings"><path codeLine="82" d="M1389.55,715.1 C1439.88,742.212 1485.6976,766.8906 1526.9876,789.1321 " fill="none" id="ViewManager-to-Settings" style="stroke:#181818;stroke-width:1.0;"/><polygon fill="#181818" points="1532.27,791.9775,1526.2434,784.1878,1527.868,789.6063,1522.4495,791.2309,1532.27,791.9775" style="stroke:#181818;stroke-width:1.0;"/><text fill="#000000" font-family="sans-serif" font-size="13" lengthAdjust="spacing" textLength="30" x="1467.5" y="758.0669">uses</text></g><!--SRC=[hLNDZfmm3BxFKqHxeYep3y2XqdIqlLMgjAjUeqpmCj50WX8pFwhwxdKWWL1czaTQBXZxisD_TeoiXNFieH5ARzhh0_kpOlHiDknHexsorYYDxCLOzkkA1wEPQ5kohlwkLdBmtDgoKzfistPdoCNKDTWOPisiCSWAXaSA0tRpV0nw9mzGTWGbuzCe1wCKTRqNyiWReKNLOtP1zNFG1E19mJa1_QRFEK2QfkcqaW8LvLwmaEmkLVVGhunpfHLodlcKquo_102Qggg1EnGMiwYq84f-1bKTq8rAMOEm7E4ouQWajRS2OTHqRKcVt06YqfLtdZWT6Ob49kb5_yXWXi8TkHODv8nIgm3vIwUbhondVGqdKUUiX5fSHryqxUGNjRpNd2sr6En7mkPzG0udq9YMyL_JNYd6GgKSnSpw60Lxz2-NZvDGi7Xuz80Bo8xed3caXoV3yFOu-bvnGSqaupF9MnA3QTyX6kt8y7sGVbWY9Ovnw9wVuY2-DKxvOhmNqxsSepwtaIsb7LXC37Z1QFED2bbnwb0MvRJH7XEcsKEYcXgUeSBQTnocY4hJzM_cbedcoDQDvhQKcyPvqfdtBsXUvaNEfZ_b-MxO3z2uA3UvQA5fdt6CzksmvfmbvsO3xOjjELj0qtXAepN8iAk8BYNgpLF_McHdx41ZplQYA_rcAVorf0Qf1ao7_TTutq6Nl07dADyil6SRBDgMwygH27Hg2PTyL5E2H8TpASFB9MWS36HFVvVr-jkzFuQlXZQh8_XjGE-RRCQ2TGxSg-Z50dg7psnll0D_kwF1SJKFrpjCDoP6NsBcL-0-RfhV0VCF]--></g></svg>